HIERARCHY
ROOT Hips
{
	OFFSET 0.000000 0.000000 0.000000
	CHANNELS 6 Xposition Yposition Zposition Zrotation Yrotation Xrotation 
	JOINT LHipJoint
	{
		OFFSET 0.000000 0.000000 0.000000
		CHANNELS 3 Zrotation Yrotation Xrotation
		JOINT LeftUpLeg
		{
			OFFSET 1.363060 -1.794630 0.839290
			CHANNELS 3 Zrotation Yrotation Xrotation
			JOINT LeftLeg
			{
				OFFSET 2.448110 -6.726130 0.000000
				CHANNELS 3 Zrotation Yrotation Xrotation
				JOINT LeftFoot
				{
					OFFSET 2.562200 -7.039590 0.000000
					CHANNELS 3 Zrotation Yrotation Xrotation
					JOINT LeftToeBase
					{
						OFFSET 0.157640 -0.433110 2.322550
						CHANNELS 3 Zrotation Yrotation Xrotation
						End Site
						{
							OFFSET 0.000000 0.000000 0.000000
						}
					}
				}
			}
		}
	}
	JOINT RHipJoint
	{
		OFFSET 0.000000 0.000000 0.000000
		CHANNELS 3 Zrotation Yrotation Xrotation
		JOINT RightUpLeg
		{
			OFFSET -1.305520 -1.794630 0.839290
			CHANNELS 3 Zrotation Yrotation Xrotation
			JOINT RightLeg
			{
				OFFSET -2.542530 -6.985550 0.000000
				CHANNELS 3 Zrotation Yrotation Xrotation
				JOINT RightFoot
				{
					OFFSET -2.568260 -7.056230 0.000000
					CHANNELS 3 Zrotation Yrotation Xrotation
					JOINT RightToeBase
					{
						OFFSET -0.164730 -0.452590 2.363150
						CHANNELS 3 Zrotation Yrotation Xrotation
						End Site
						{
							OFFSET 0.000000 0.000000 0.000000
						}
					}
				}
			}
		}
	}
}
MOTION
Frames: 25
Frame Time: 0.008333
1.131160 17.421230 1.064919 -179.534219 -63.362638 -168.630759 -11.500605 2.184057 -2.043095 -5.936076 25.177643 -15.650859 -1.787944 -0.081615 10.054421 3.639143 25.476072 0.637171 4.223700 -0.000001 -38.931500 9.437855 -1.071195 3.036566 2.872921 3.001326 -18.325333 2.645552 0.607247 4.458555 0.928692 4.811425 7.636632 0.652500 0.000000 -70.219999
1.132088 17.416429 1.091494 -179.540853 -64.047172 -168.539385 -11.481569 2.150816 -1.996415 -6.124526 24.827008 -15.958850 -1.795079 -0.087323 10.150511 3.656218 25.401200 0.253945 4.050700 0.000000 -38.351000 9.443516 -1.038684 2.924345 2.862535 2.599934 -18.430833 2.625604 0.600451 4.673899 0.877613 4.459564 7.420118 0.548600 -0.000000 -70.325899
1.131844 17.411362 1.118742 -179.546901 -64.824021 -168.434810 -11.462094 2.118403 -1.930342 -6.319631 24.407582 -16.285228 -1.799889 -0.096160 10.226071 3.672944 25.311015 -0.134523 3.875100 -0.000000 -37.745100 9.447749 -1.006237 2.808576 2.856727 2.169521 -18.538475 2.603278 0.595384 4.903149 0.816964 4.043793 7.171200 0.428400 0.000000 -70.361300
1.130241 17.406007 1.146518 -179.559221 -65.705241 -168.314215 -11.442598 2.088725 -1.844092 -6.516934 23.920676 -16.622499 -1.803490 -0.108032 10.275184 3.684944 25.181631 -0.518975 3.696600 0.000001 -37.141400 9.451294 -0.973970 2.687572 2.854223 1.699298 -18.634282 2.578661 0.593489 5.132248 0.745833 3.560952 6.889908 0.292100 0.000001 -70.325701
1.126668 17.400382 1.174704 -179.575565 -66.708612 -168.173363 -11.423752 2.063458 -1.730715 -6.712060 23.352317 -16.977043 -1.806204 -0.123222 10.298472 3.689012 24.992461 -0.895280 3.514300 0.000000 -36.562900 9.453570 -0.943109 2.562467 2.858211 1.177522 -18.714015 2.552905 0.597368 5.343942 0.663044 3.004010 6.578272 0.139200 -0.000000 -70.220601
1.121254 17.394507 1.203058 -179.614140 -67.844823 -168.005300 -11.405713 2.044832 -1.594319 -6.899130 22.719688 -17.333256 -1.810723 -0.141072 10.288954 3.677520 24.705795 -1.247499 3.328900 -0.000000 -36.057699 9.456652 -0.913424 2.429950 2.863269 0.591323 -18.756676 2.525485 0.607758 5.522887 0.567984 2.375162 6.238288 -0.028100 0.000001 -70.054301
1.113800 17.388391 1.231276 -179.691999 -69.127782 -167.796387 -11.388575 2.034712 -1.435063 -7.075186 22.027753 -17.684970 -1.818977 -0.161284 10.244234 3.644478 24.291662 -1.563954 3.141700 -0.000000 -35.665400 9.461919 -0.885281 2.287942 2.865691 -0.074548 -18.748599 2.496583 0.625756 5.654232 0.460357 1.677562 5.873318 -0.207300 0.000001 -69.838400
1.103764 17.382080 1.259185 -179.812390 -70.575553 -167.534331 -11.372663 2.033933 -1.245649 -7.235819 21.264796 -18.048735 -1.831827 -0.183767 10.173096 3.586246 23.728339 -1.840597 2.953400 -0.000000 -35.414600 9.468460 -0.860597 2.138993 2.871665 -0.831448 -18.691704 2.467944 0.653857 5.719901 0.339498 0.907414 5.492010 -0.397900 0.000000 -69.581401
1.091455 17.375606 1.286377 179.973840 -72.194766 -167.180720 -11.357584 2.043768 -1.032920 -7.381879 20.446779 -18.404177 -1.851517 -0.207972 10.067879 3.496815 22.992206 -2.058432 2.768400 0.000000 -35.340899 9.479190 -0.838498 1.977151 2.870055 -1.697664 -18.566539 2.438854 0.691050 5.710656 0.206710 0.080390 5.101198 -0.594400 -0.000000 -69.300200
1.076702 17.369107 1.312644 179.617340 -73.995747 -166.682528 -11.343872 2.064023 -0.794271 -7.513812 19.565812 -18.757945 -1.878473 -0.233727 9.934072 3.374441 22.076054 -2.210581 2.589400 0.000000 -35.457300 9.493466 -0.819922 1.801722 2.860701 -2.686442 -18.372269 2.410544 0.737953 5.615023 0.063055 -0.796320 4.712330 -0.794200 0.000000 -69.005200
1.059936 17.362699 1.337666 178.987974 -75.980061 -165.916690 -11.333493 2.093860 -0.532556 -7.637915 18.616627 -19.096587 -1.912301 -0.261049 9.766219 3.219062 20.987184 -2.283530 2.421500 -0.000000 -35.766700 9.510448 -0.804159 1.606926 2.832952 -3.816274 -18.101196 2.383280 0.793038 5.428896 -0.088735 -1.703941 4.336429 -0.992499 0.000000 -68.707600
1.040384 17.356505 1.361691 177.939460 -78.150469 -164.714638 -11.332875 2.130521 -0.237100 -7.751298 17.579689 -19.461615 -1.951791 -0.289442 9.588019 3.033870 19.735904 -2.284751 2.262100 0.000000 -36.249900 9.520044 -0.795961 1.401451 2.802367 -5.076009 -17.771381 2.360458 0.859552 5.133529 -0.249109 -2.655820 3.994226 -1.194700 0.000000 -68.401600
1.019537 17.350742 1.384120 175.766935 -80.482456 -162.399843 -11.362285 2.168605 0.079190 -7.879377 16.446373 -19.789398 -1.993140 -0.320083 9.365298 2.823009 18.364558 -2.187159 2.121099 0.000000 -36.888200 9.506633 -0.793710 1.167528 2.724402 -6.496550 -17.360314 2.340725 0.931156 4.743307 -0.412103 -3.609547 3.690556 -1.391100 -0.000000 -68.099001
0.996117 17.345509 1.405760 170.666162 -82.951505 -157.133031 -11.489060 2.184261 0.431845 -8.036220 15.190599 -20.142207 -2.029758 -0.355836 9.136065 2.590653 16.890429 -2.007547 1.990400 -0.000000 -37.640600 9.398407 -0.824395 0.924626 2.602826 -8.038424 -16.899551 2.330596 1.011080 4.228812 -0.584078 -4.611100 3.447764 -1.597600 0.000000 -67.773600
0.972157 17.341020 1.425782 148.614388 -85.682346 -134.944356 -11.992640 1.922190 0.771755 -8.361334 13.691499 -20.355457 -2.019577 -0.480658 8.901231 2.304763 15.297062 -1.675763 1.880399 -0.000000 -38.469900 8.930138 -1.125851 0.715194 2.254630 -9.842774 -16.394213 2.330265 1.015846 3.561427 -0.807363 -5.700417 3.217758 -1.803600 -0.000001 -67.431300
0.946180 17.337306 1.445470 44.380926 -88.596946 -30.554909 -10.614943 1.733727 0.990014 -7.939703 12.037370 -20.581379 -2.101130 -0.713767 8.852140 1.979641 13.501099 -1.298396 1.778700 -0.000001 -39.336599 10.283884 -1.393763 0.707556 2.743641 -11.751585 -15.789673 2.209262 0.899091 2.622948 -1.104571 -7.052102 3.092784 -2.037400 0.000000 -67.025600
0.914591 17.333733 1.472038 15.256790 -86.497438 -1.058152 -10.491244 2.286490 1.815452 -7.684141 9.528732 -21.478127 -2.119098 -0.539554 8.783485 1.872898 12.333420 -1.105391 1.681400 -0.000001 -40.077300 10.367135 -0.933409 0.092694 3.068498 -14.341834 -15.107769 2.312227 1.221826 1.712072 -1.130536 -7.836349 3.328825 -2.285700 0.000000 -66.624200
0.888590 17.331477 1.489607 12.727491 -83.481339 1.653215 -10.480259 2.353258 2.237354 -7.819669 7.769848 -21.681244 -2.162440 -0.567228 8.375485 1.642758 10.932511 -0.558004 1.610499 0.000000 -40.926600 10.389973 -0.919880 -0.204487 2.823828 -16.125555 -14.336816 2.277867 1.321125 0.798202 -1.316826 -9.021799 3.416582 -2.573301 -0.000000 -66.072600
0.862501 17.329789 1.506113 11.838788 -80.278685 2.722729 -10.434813 2.386046 2.657899 -7.961785 5.873257 -21.799163 -2.202740 -0.608439 7.923190 1.419930 9.613403 0.074633 1.547600 0.000000 -41.722100 10.446222 -0.933084 -0.486266 2.521611 -17.874610 -13.472299 2.221590 1.405914 -0.210351 -1.527654 -10.338443 3.576268 -2.909100 0.000001 -65.413499
0.836958 17.328393 1.521126 11.622701 -76.968692 3.104576 -10.372174 2.397776 3.076781 -8.128563 3.857217 -21.807120 -2.243049 -0.654733 7.412195 1.210233 8.404260 0.785612 1.491600 -0.000000 -42.440100 10.520182 -0.954268 -0.763998 2.131542 -19.572867 -12.509720 2.141255 1.477360 -1.262682 -1.757675 -11.763979 3.793337 -3.292700 -0.000000 -64.663100
0.811477 17.326881 1.535073 11.679185 -73.596473 3.207641 -10.301648 2.392045 3.493380 -8.312940 1.757074 -21.727708 -2.286406 -0.700243 6.862176 1.013511 7.291394 1.556350 1.435400 0.000000 -43.094900 10.601186 -0.981615 -1.021188 1.661918 -21.114005 -11.422668 2.027798 1.542613 -2.380959 -2.019510 -13.378450 4.066271 -3.754400 0.000000 -63.767800
0.786807 17.324736 1.547284 11.917711 -70.178571 3.094340 -10.219062 2.371457 3.904321 -8.533978 -0.413516 -21.523210 -2.336520 -0.743491 6.268745 0.830139 6.277931 2.378827 1.377899 0.000000 -43.661900 10.694979 -1.006664 -1.277812 1.083186 -22.574501 -10.231454 1.887010 1.590236 -3.463774 -2.297469 -15.080084 4.361860 -4.265900 0.000000 -62.822200
0.762812 17.321458 1.557938 12.230483 -66.735811 2.866052 -10.122477 2.338994 4.308673 -8.789752 -2.622264 -21.203776 -2.396665 -0.781198 5.655696 0.657792 5.337095 3.233498 1.312400 0.000000 -44.149301 10.801924 -1.027789 -1.533773 0.399315 -23.949730 -8.940247 1.721808 1.618819 -4.471083 -2.587288 -16.844753 4.663632 -4.821000 -0.000000 -61.852701
0.739898 17.316532 1.567069 12.559498 -63.285566 2.566367 -10.008293 2.297175 4.703827 -9.081119 -4.838844 -20.774717 -2.469304 -0.810804 5.045401 0.494193 4.440925 4.101012 1.232200 -0.000000 -44.566400 10.923820 -1.042499 -1.795010 -0.389797 -25.263386 -7.558691 1.539196 1.625647 -5.352762 -2.878889 -18.616049 4.956101 -5.401200 -0.000000 -60.932299
0.718294 17.309567 1.574988 12.866571 -59.844626 2.225857 -9.874075 2.248953 5.088566 -9.407040 -7.032288 -20.251631 -2.555799 -0.830554 4.464671 0.337137 3.558877 4.959360 1.129900 -0.000001 -44.920100 11.060625 -1.049082 -2.068971 -1.279312 -26.560691 -6.114400 1.351600 1.608367 -6.047272 -3.156932 -20.308274 5.224488 -5.974200 0.000000 -60.139301
